<svg  width="32" height="32" aria-hidden="true" style="position:absolute;width:0;height:0;overflow:hidden" xmlns="http://www.w3.org/2000/svg">
    <defs>
        <symbol id="icon-company" viewBox="0 0 32 32">
            <path d="M14.667 2.667a4 4 0 0 1 4 4v1.561A4.004 4.004 0 0 1 20 8h5.333a4 4 0 0 1 4 4v13.333a4 4 0 0 1-4 4H6.666a4 4 0 0 1-4-4V6.666a4 4 0 0 1 4-4h8zm0 2.666h-8c-.736 0-1.333.597-1.333 1.333v18.667c0 .736.597 1.333 1.333 1.333H16v-20c0-.736-.597-1.333-1.333-1.333zm10.666 5.334H20c-.736 0-1.333.597-1.333 1.333v14.667h6.667c.736 0 1.333-.597 1.333-1.333V12.001c0-.736-.597-1.333-1.333-1.333zm-13.333 8a1.333 1.333 0 0 1 0 2.666H9.333a1.333 1.333 0 0 1 0-2.666H12zm12 0a1.333 1.333 0 0 1 0 2.666h-2.667a1.333 1.333 0 0 1 0-2.666H24zm-12-5.334a1.333 1.333 0 0 1 0 2.666H9.333a1.333 1.333 0 0 1 0-2.666H12zm12 0a1.333 1.333 0 0 1 0 2.666h-2.667a1.333 1.333 0 0 1 0-2.666H24zM12 8a1.333 1.333 0 0 1 0 2.666H9.333a1.333 1.333 0 0 1 0-2.666H12z"/>
        </symbol>
        <symbol id="icon-logo-footer" viewBox="0 0 61 24">
                <path fill="#f68a1f" style="fill: var(--color1, #f68a1f)" d="M12.043 21.108c-0.012 0-0.026 0-0.041 0-5.027 0-9.101-4.075-9.101-9.101s4.075-9.101 9.101-9.101c0.014 0 0.029 0 0.043 0h-0.002c0.214 0 0.426 0.010 0.637 0.025l-2.731 1.948 1.041 1.060-0.619 0.461c-0.425-0.149-0.991-0.274-1.197-0.337-0.337-0.102-0.416 0.132-0.657 0.323-0.266 0.212-1.081 0.946-1.081 0.946-0.271 0.336-0.319 0.458-0.248 1.286l-2.105 1.72c-0.011 0.008-0.017 0.021-0.017 0.035 0 0.024 0.019 0.043 0.043 0.043 0.007 0 0.014-0.002 0.020-0.005l2.131-1.065c0.254 1.166 0.995 4.103 1.035 4.434 0.047 0.393 0.283 1.987 0.596 2.573s0.91 0.944 1.125 1.195c0.184 0.25 0.365 0.468 0.558 0.677l-0.005-0.005c0.189 0.151 0.882 0.054 1.327-0.24s2.875 0.069 3.958-0.316c1.658-0.59 2.813-2.014 3.75-2.597 0.321-0.115 0.695-0.201 1.083-0.242l0.021-0.002c-1.226 3.68-4.639 6.287-8.661 6.287-0 0-0 0-0.001 0h0zM10.819 7.565c0.073 0.070 0.112 0.241 0.083 0.254-0.083 0.089-0.147 0.196-0.187 0.315l-0.002 0.006c-0.045 0.131-0.711 0.181-0.839 0.247s-0.44 0.375-0.57 0.4 0.68 1.757 0.813 2.084 1.026 0.888 1.281 1.097c0.292 0.272 0.541 0.585 0.739 0.931l0.010 0.019-0.575 1.411 0.385 0.226s0.586-1.406 0.818-1.857c0.193-0.375 0.866-1.18 1.508-1.394 0.328-0.098 0.704-0.154 1.094-0.154 0.443 0 0.869 0.073 1.267 0.206l-0.028-0.008c0.392 0.18 0.728 0.413 1.016 0.696l-0.001-0.001 0.24-0.421s-0.26-0.448-1.091-0.828c0.147-0.702 0.482-1.309 0.95-1.786l-0.001 0.001c0.608-0.628 1.749-0.837 2.542-0.908-1.026-2.116-2.782-3.744-4.933-4.581l-0.062-0.021-2.435 1.383 1.104 1.124zM3.903 5.306l-1.089-1.089c-1.567 1.835-2.594 4.174-2.81 6.743l-0.003 0.044h1.541c0.211-2.19 1.068-4.147 2.375-5.715l-0.014 0.017zM19.797 2.811c-1.837-1.566-4.178-2.592-6.749-2.808l-0.044-0.003v1.539c2.191 0.211 4.149 1.067 5.719 2.374l-0.017-0.014zM11.013 1.539v-1.539c-2.615 0.219-4.955 1.245-6.809 2.825l0.017-0.014 1.089 1.089c1.553-1.293 3.512-2.15 5.66-2.357l0.043-0.003zM0 12.995c0.219 2.613 1.246 4.952 2.827 6.804l-0.014-0.017 1.089-1.089c-1.294-1.552-2.15-3.509-2.358-5.656l-0.003-0.043zM4.221 21.189c1.837 1.566 4.177 2.592 6.748 2.808l0.044 0.003v-1.54c-2.191-0.21-4.149-1.066-5.72-2.373l0.017 0.014zM24.017 11.005c-0.219-2.613-1.246-4.952-2.827-6.804l0.014 0.017-1.089 1.089c1.294 1.552 2.15 3.509 2.358 5.656l0.003 0.043zM13.004 22.46v1.54c2.615-0.219 4.955-1.245 6.809-2.825l-0.017 0.014-1.089-1.089c-1.553 1.293-3.512 2.149-5.66 2.356l-0.043 0.003zM20.115 18.693l1.089 1.089c1.567-1.835 2.594-4.174 2.81-6.743l0.003-0.044h-1.541c-0.211 2.19-1.067 4.147-2.375 5.715l0.014-0.017z"></path>
                <path fill="#fff" style="fill: var(--color2, #fff)" d="M35.1 8.135c0.051 0.183 0.080 0.393 0.081 0.61v0c0 0.006 0 0.012 0 0.019 0 0.234-0.038 0.458-0.107 0.669l0.004-0.015c-0.071 0.213-0.184 0.395-0.331 0.544l0-0c-0.158 0.157-0.351 0.279-0.565 0.356l-0.011 0.003c-0.233 0.082-0.501 0.129-0.78 0.129-0.019 0-0.039-0-0.058-0.001l0.003 0h-3.345v-1.136h3.377c0.019 0.002 0.041 0.003 0.063 0.003 0.173 0 0.331-0.064 0.452-0.169l-0.001 0.001c0.099-0.106 0.16-0.25 0.16-0.407 0-0.010-0-0.019-0.001-0.029l0 0.001c-0-0.083-0.014-0.162-0.038-0.236l0.002 0.005c-0.024-0.073-0.064-0.135-0.117-0.185l-0-0c-0.065-0.058-0.143-0.103-0.229-0.13l-0.004-0.001c-0.108-0.034-0.231-0.053-0.36-0.053-0.012 0-0.024 0-0.035 0l0.002-0h-1.467c-0.024 0.001-0.052 0.001-0.081 0.001-0.308 0-0.603-0.054-0.877-0.152l0.018 0.006c-0.231-0.086-0.427-0.22-0.584-0.39l-0.001-0.001c-0.135-0.152-0.238-0.337-0.294-0.54l-0.002-0.010c-0.051-0.178-0.080-0.383-0.081-0.594v-0c-0-0.006-0-0.012-0-0.019 0-0.229 0.036-0.449 0.103-0.656l-0.004 0.015c0.068-0.21 0.179-0.39 0.323-0.537l-0 0c0.156-0.154 0.346-0.274 0.557-0.348l0.011-0.003c0.228-0.079 0.492-0.125 0.766-0.125 0.017 0 0.034 0 0.051 0.001l-0.003-0h3.067v1.137h-3.099c-0.018-0.002-0.040-0.003-0.061-0.003-0.162 0-0.311 0.060-0.424 0.16l0.001-0.001c-0.093 0.101-0.149 0.237-0.149 0.386 0 0.009 0 0.018 0.001 0.027l-0-0.001c0 0.077 0.012 0.151 0.034 0.22l-0.001-0.005c0.023 0.070 0.061 0.129 0.11 0.177l0 0c0.060 0.056 0.132 0.1 0.212 0.126l0.004 0.001c0.101 0.031 0.217 0.049 0.337 0.049 0.012 0 0.025-0 0.037-0.001l-0.002 0h1.476c0.024-0.001 0.052-0.001 0.079-0.001 0.314 0 0.615 0.055 0.895 0.156l-0.018-0.006c0.236 0.089 0.436 0.223 0.6 0.394l0.001 0.001c0.141 0.153 0.247 0.341 0.303 0.549l0.002 0.009zM41.499 5.475c0.441 0.472 0.665 1.193 0.665 2.144 0 0.945-0.224 1.66-0.665 2.127s-1.087 0.705-1.915 0.705h-0.752c-0.828 0-1.472-0.237-1.915-0.705s-0.666-1.182-0.666-2.127c0-0.95 0.224-1.671 0.665-2.143s1.088-0.714 1.915-0.714h0.752c0.828-0.001 1.472 0.239 1.915 0.713zM41.019 7.61c0-0.608-0.114-1.051-0.339-1.317-0.222-0.262-0.59-0.394-1.095-0.394h-0.752c-0.505 0-0.876 0.133-1.099 0.395-0.228 0.266-0.343 0.712-0.343 1.325 0 0.608 0.114 1.048 0.339 1.308 0.221 0.257 0.593 0.387 1.104 0.387h0.752c0.5 0 0.868-0.132 1.092-0.391 0.227-0.263 0.343-0.705 0.343-1.312zM45.144 9.244c-0.122-0.039-0.228-0.1-0.316-0.181l0.001 0.001c-0.074-0.071-0.13-0.161-0.16-0.261l-0.001-0.004c-0.031-0.102-0.049-0.219-0.049-0.34 0-0.002 0-0.005 0-0.007v0-3.69h-1.138v3.698c-0 0.008-0 0.017-0 0.026 0 0.273 0.042 0.536 0.119 0.783l-0.005-0.018c0.079 0.248 0.208 0.46 0.377 0.635l-0-0c0.183 0.183 0.405 0.325 0.654 0.413l0.012 0.004c0.269 0.094 0.58 0.149 0.903 0.149 0.022 0 0.044-0 0.066-0.001l-0.003 0h2.469v-1.136h-2.412c-0.012 0-0.027 0.001-0.041 0.001-0.169 0-0.333-0.026-0.487-0.073l0.012 0.003zM53.112 5.431l1.909 5.019h-1.256l-0.39-1.031h-3.060l-0.407 1.031h-1.249l1.985-5.020c0.088-0.252 0.255-0.458 0.472-0.592l0.005-0.003c0.206-0.108 0.45-0.172 0.709-0.172 0.020 0 0.040 0 0.060 0.001l-0.003-0c0.016-0.001 0.035-0.001 0.053-0.001 0.257 0 0.5 0.063 0.713 0.176l-0.008-0.004c0.219 0.137 0.384 0.343 0.465 0.588l0.002 0.008zM52.945 8.282l-0.878-2.325c-0.023-0.077-0.093-0.132-0.176-0.132-0.005 0-0.009 0-0.014 0.001l0.001-0c-0.003-0-0.007-0-0.011-0-0.087 0-0.161 0.056-0.188 0.135l-0 0.001-0.916 2.321zM59.833 8.207c0.357-0.119 0.649-0.352 0.839-0.656l0.004-0.007c0.092-0.146 0.165-0.314 0.212-0.494l0.003-0.012c0.043-0.162 0.068-0.348 0.068-0.54v-0c0-0.001 0-0.002 0-0.003 0-0.234-0.039-0.459-0.111-0.668l0.004 0.015c-0.075-0.218-0.19-0.405-0.339-0.56l0 0c-0.161-0.162-0.355-0.291-0.571-0.376l-0.011-0.004c-0.233-0.090-0.502-0.142-0.783-0.142-0.018 0-0.035 0-0.053 0.001l0.003-0h-3.078v1.137h3.112c0.018-0.002 0.039-0.003 0.061-0.003 0.179 0 0.341 0.072 0.458 0.189l-0-0c0.102 0.117 0.164 0.271 0.164 0.44 0 0.005-0 0.010-0 0.016l0-0.001c-0 0.093-0.015 0.182-0.042 0.265l0.002-0.006c-0.027 0.083-0.068 0.155-0.12 0.217l0.001-0.001c-0.056 0.063-0.125 0.114-0.202 0.147l-0.004 0.001c-0.087 0.037-0.189 0.058-0.296 0.058-0.007 0-0.015-0-0.022-0l0.001 0h-2.15c-0.025-0.002-0.055-0.004-0.084-0.004-0.244 0-0.468 0.088-0.64 0.234l0.001-0.001c-0.145 0.173-0.234 0.398-0.234 0.644 0 0.031 0.001 0.061 0.004 0.091l-0-0.004v2.268h1.136v-2.080c0-0.045 0.008-0.053 0.053-0.053h1.39l1.259 2.133h1.271z"></path>
                <path fill="#fff" style="fill: var(--color2, #fff)" d="M38.468 13.811c0.205 0.232 0.331 0.538 0.331 0.874 0 0.019-0 0.039-0.001 0.058l0-0.003v4.499h-1.146v-4.45c0-0.005 0.001-0.012 0.001-0.018 0-0.060-0.021-0.114-0.056-0.157l0 0c-0.035-0.036-0.085-0.058-0.139-0.058-0.048 0-0.092 0.017-0.126 0.046l0-0c-0.041 0.036-0.073 0.082-0.093 0.134l-0.001 0.002-1.341 3.521c-0.099 0.307-0.264 0.569-0.479 0.78l-0 0c-0.222 0.186-0.511 0.3-0.827 0.3-0.029 0-0.058-0.001-0.086-0.003l0.004 0c-0.028 0.002-0.060 0.003-0.092 0.003-0.346 0-0.659-0.138-0.887-0.362l0 0c-0.203-0.233-0.326-0.54-0.326-0.876 0-0.021 0-0.042 0.001-0.063l-0 0.003v-3.253c0-0.005 0.001-0.011 0.001-0.017 0-0.060-0.022-0.115-0.059-0.157l0 0c-0.037-0.037-0.088-0.060-0.145-0.060-0.048 0-0.093 0.017-0.128 0.045l0-0c-0.040 0.037-0.071 0.084-0.091 0.136l-0.001 0.002-1.673 4.5h-1.215l1.752-4.709c0.099-0.306 0.262-0.568 0.475-0.78l0-0c0.25-0.186 0.565-0.298 0.906-0.298 0.376 0 0.72 0.136 0.986 0.361l-0.002-0.002c0.205 0.232 0.331 0.538 0.331 0.874 0 0.019-0 0.039-0.001 0.058l0-0.003v3.261c-0 0.004-0 0.010-0 0.015 0 0.058 0.021 0.111 0.056 0.152l-0-0c0.031 0.035 0.077 0.058 0.128 0.058 0.003 0 0.006-0 0.009-0l-0 0c0.004 0 0.008 0 0.013 0 0.105 0 0.193-0.073 0.216-0.171l0-0.002 1.342-3.523c0.099-0.306 0.262-0.568 0.475-0.78l0-0c0.25-0.186 0.565-0.298 0.906-0.298 0.376 0 0.72 0.136 0.986 0.361l-0.002-0.002zM44.262 14.219l1.909 5.019h-1.256l-0.348-0.921h-3.145l-0.363 0.921h-1.249l1.985-5.020c0.088-0.252 0.255-0.458 0.47-0.592l0.005-0.003c0.206-0.108 0.45-0.172 0.709-0.172 0.020 0 0.040 0 0.060 0.001l-0.003-0c0.016-0.001 0.035-0.001 0.053-0.001 0.257 0 0.5 0.063 0.713 0.176l-0.008-0.004c0.219 0.137 0.384 0.344 0.465 0.589l0.002 0.008zM44.138 17.181l-0.92-2.435c-0.023-0.077-0.093-0.133-0.176-0.133-0.005 0-0.009 0-0.013 0l0.001-0c-0.003-0-0.007-0-0.011-0-0.087 0-0.161 0.056-0.188 0.135l-0 0.001-0.959 2.432zM52.076 13.55v4.45c0 0.004 0 0.008 0 0.012 0 0.059-0.023 0.112-0.061 0.152l0-0c-0.043 0.038-0.099 0.061-0.161 0.061-0.007 0-0.013-0-0.020-0.001l0.001 0c-0.005 0-0.011 0.001-0.017 0.001-0.056 0-0.108-0.018-0.151-0.048l0.001 0.001c-0.044-0.035-0.080-0.079-0.105-0.13l-0.001-0.002-1.608-3.515c-0.105-0.308-0.274-0.57-0.492-0.781l-0.001-0.001c-0.228-0.186-0.522-0.299-0.842-0.299-0.031 0-0.061 0.001-0.091 0.003l0.004-0c-0.454 0-0.797 0.121-1.020 0.358-0.208 0.231-0.336 0.538-0.336 0.875 0 0.019 0 0.038 0.001 0.057l-0-0.003v4.499h1.137v-4.45c-0-0.005-0.001-0.010-0.001-0.016 0-0.060 0.023-0.115 0.061-0.156l-0 0c0.044-0.038 0.102-0.062 0.166-0.062 0.008 0 0.016 0 0.023 0.001l-0.001-0c0.002-0 0.004-0 0.006-0 0.12 0 0.221 0.077 0.258 0.185l0.001 0.002 1.608 3.514c0.058 0.169 0.127 0.315 0.21 0.452l-0.006-0.010c0.081 0.133 0.178 0.246 0.29 0.342l0.002 0.002c0.114 0.096 0.25 0.171 0.397 0.218l0.008 0.002c0.15 0.047 0.322 0.074 0.501 0.074 0.010 0 0.020-0 0.030-0l-0.002 0c0.029 0.002 0.064 0.004 0.098 0.004 0.355 0 0.677-0.138 0.917-0.362l-0.001 0.001c0.211-0.232 0.34-0.541 0.34-0.88 0-0.020-0-0.040-0.001-0.060l0 0.003v-4.49z"></path>
        </symbol>
        <symbol id="icon-home" viewBox="0 0 32 32" stroke="#fff">
            <path fill="none" stroke-linecap="round" stroke-linejoin="round" stroke-width="3.146" d="m25.744 14.696 3.146-6.292h-6.292l3.146-6.292M19.451 20.988h-6.292v9.439h6.292v-9.439zM16.305 5.257 3.72 14.239M6.867 30.427V12.006m18.877 10.555v7.866m-22.024 0h25.17"/>
        </symbol>
        <symbol id="icon-light-flash" viewBox="0 0 32 32">
            <path fill="#324a5e" d="M32 16c0 8.837-7.163 16-16 16S0 24.837 0 16 7.163 0 16 0s16 7.163 16 16z"/><path fill="#2b3b4e" d="M18.524 31.801c6.815-1.08 12.197-6.462 13.277-13.277L19.058 5.781l-6.491 8.185-2.814 1.806 5.881 5.881-2.692 4.566 5.582 5.582z"/><path fill="#ffd15d" d="m19.058 5.781-2.142 7.157a1.419 1.419 0 0 0 .952 1.766l3.866 1.157a.961.961 0 0 1 .387 1.617l-9.181 8.741 2.142-7.157a1.419 1.419 0 0 0-.952-1.766l-3.866-1.157a.961.961 0 0 1-.387-1.617l9.181-8.741z"/><path fill="#f9b54c" d="m21.735 15.861-3.866-1.157a1.418 1.418 0 0 1-.952-1.766l2.142-7.157-3.04 2.895V23.29l6.104-5.812a.96.96 0 0 0-.387-1.617z"/>
        </symbol>
        <symbol id="icon-store" viewBox="0 0 32 32">
            <path d="M25.531 3.961a2.681 2.681 0 0 0-2.285-1.295H8.755c-.931 0-1.807.496-2.285 1.295L2.858 9.98c-.12.195-.191.432-.191.685v.002a5.273 5.273 0 0 0 1.338 3.496L4 14.158v11.176a2.67 2.67 0 0 0 2.667 2.667h18.667a2.67 2.67 0 0 0 2.667-2.667V14.158a5.265 5.265 0 0 0 1.333-3.489v-.002c0-.253-.071-.49-.194-.691l.003.006-3.612-6.019zm1.114 7.04A2.674 2.674 0 0 1 24 13.333a2.67 2.67 0 0 1-2.667-2.667c0-.091-.033-.171-.052-.256l.027-.005-1.015-5.072h2.952l3.4 5.668zm-12.22-5.668h3.148l1.084 5.42c-.047 1.429-1.217 2.58-2.657 2.58s-2.611-1.151-2.657-2.58l1.083-5.42zm-5.67 0h2.952l-1.013 5.072.027.005c-.02.085-.053.165-.053.256a2.67 2.67 0 0 1-2.667 2.667 2.671 2.671 0 0 1-2.644-2.318l-.001-.014 3.4-5.668zm4.578 20v-4h5.333v4h-5.333zm8 0v-4a2.67 2.67 0 0 0-2.667-2.667h-5.333a2.67 2.67 0 0 0-2.667 2.667v4h-4V15.81c.428.111.869.189 1.333.189h.003c1.59 0 3.017-.698 3.992-1.804l.005-.006c.977 1.109 2.409 1.809 4 1.809s3.023-.7 4-1.809a5.31 5.31 0 0 0 3.997 1.809h.003c.464 0 .905-.079 1.333-.189v9.523h-4z"/>
        </symbol>
        <symbol id="icon-energy" viewBox="0 0 32 32">
           <path fill="#FFB841" d="m26.87 12.49-10 18c-.18.32-.51.51-.87.51-.08 0-.17-.01-.25-.03-.44-.12-.75-.51-.75-.97V19H6c-.34 0-.65-.17-.84-.45-.18-.28-.21-.64-.08-.95l7-16c.16-.36.52-.6.92-.6h6a.999.999 0 0 1 .93 1.37L16.48 11H26c.35 0 .68.19.86.49.18.31.19.69.01 1z"/>
        </symbol>
        <symbol id="icon-phone" fill="none" viewBox="0 0 24 24">
            <path d="M15 3C16.5315 3.17014 17.9097 3.91107 19 5C20.0903 6.08893 20.8279 7.46869 21 9M14.5 6.5C15.2372 6.64382 15.9689 6.96892 16.5 7.5C17.0311 8.03108 17.3562 8.76284 17.5 9.5M8.20049 15.799C1.3025 8.90022 2.28338 5.74115 3.01055 4.72316C3.10396 4.55862 5.40647 1.11188 7.87459 3.13407C14.0008 8.17945 6.5 8 11.3894 12.6113C16.2788 17.2226 15.8214 9.99995 20.8659 16.1249C22.8882 18.594 19.4413 20.8964 19.2778 20.9888C18.2598 21.717 15.0995 22.6978 8.20049 15.799Z"  stroke-width="1.5" stroke-linecap="round" stroke-linejoin="round"/>
        </symbol>
        <symbol id="icon-email" fill="none" viewBox="0 0 24 24">
            <g  stroke-linecap="round" stroke-width="1.5"><path stroke-linejoin="round" stroke-miterlimit="10" d="M17 20.5H7c-3 0-5-1.5-5-5v-7c0-3.5 2-5 5-5h10c3 0 5 1.5 5 5v7c0 3.5-2 5-5 5Z"/><path d="m18.77 7.769-5.547 4.286a2 2 0 0 1-2.446 0L5.23 7.77"/></g>
        </symbol>
        <symbol id="icon-arrow" viewBox="0 0 32 32" >
            <path d="M32 16c0-8.836-7.163-16-16-16S0 7.163 0 16s7.163 16 16 16 16-7.163 16-16z"/><path fill="#fff" d="m24.502 9.926-3.019 5.819a.551.551 0 0 0 0 .509l3.019 5.819a.553.553 0 0 1-.694.769L7.783 16.513a.553.553 0 0 1 0-1.028l16.025-6.329a.553.553 0 0 1 .694.769z" style="fill:var(--color2, #fff)"/><path d="M4.304 16c0-8.107 6.029-14.804 13.848-15.855A16.081 16.081 0 0 0 16 0C7.163 0 0 7.163 0 16s7.163 16 16 16c.73 0 1.448-.05 2.152-.145C10.333 30.804 4.304 24.106 4.304 16z" opacity=".1" style="fill:var(--color3, #000)"/>
        </symbol>
        <symbol id="icon-engineer" viewBox="0 0 24 24">
            <path d="M9 15q-0.797 0-1.852 0.164t-2.133 0.492-1.992 0.797-1.477 1.102-0.563 1.43v2.016h16.031v-2.016q0-0.797-0.563-1.43t-1.477-1.102-1.992-0.797-2.133-0.492-1.852-0.164zM22.078 6.844q0.047-0.094 0.047-0.164v-0.164q0-0.188-0.047-0.375l0.75-0.563q0.141-0.094 0.047-0.234l-0.703-1.172q-0.047-0.141-0.234-0.094l-0.844 0.328q-0.234-0.188-0.563-0.328l-0.141-0.938q-0.047-0.141-0.188-0.141h-1.406q-0.141 0-0.188 0.141l-0.094 0.938q-0.328 0.141-0.609 0.328l-0.844-0.328q-0.188-0.047-0.234 0.094l-0.703 1.172q-0.047 0.141 0.047 0.234l0.75 0.563q-0.047 0.188-0.047 0.375 0 0.141 0.047 0.328l-0.75 0.563q-0.141 0.094-0.047 0.234l0.703 1.219q0.047 0.094 0.234 0.094l0.844-0.375q0.234 0.188 0.609 0.328l0.094 0.938q0.047 0.141 0.188 0.141h1.406q0.141 0 0.188-0.141l0.094-0.938q0.328-0.094 0.609-0.328l0.844 0.375q0.188 0.047 0.234-0.094l0.703-1.219q0.047-0.141-0.047-0.234zM19.5 7.734q-0.516 0-0.891-0.352t-0.375-0.867 0.375-0.891 0.891-0.375 0.891 0.375 0.375 0.891-0.375 0.867-0.891 0.352zM19.922 11.672l-0.516-0.844q-0.047-0.141-0.141-0.094l-0.609 0.281q-0.188-0.188-0.422-0.234l-0.094-0.703q-0.047-0.094-0.141-0.094h-0.984q-0.141 0-0.141 0.141l-0.094 0.656q-0.094 0.047-0.211 0.094t-0.211 0.141l-0.609-0.234q-0.094-0.047-0.141 0.047l-0.516 0.844q-0.047 0.094 0.047 0.188l0.516 0.422v0.469l-0.516 0.422q-0.094 0.047-0.047 0.141l0.516 0.891q0.047 0.094 0.141 0.047l0.609-0.281q0.188 0.188 0.422 0.281l0.094 0.656q0 0.094 0.141 0.094h0.984q0.141 0 0.141-0.094l0.047-0.656q0.141-0.047 0.234-0.117t0.188-0.164l0.656 0.281q0.094 0.047 0.141-0.047l0.516-0.891q0.047-0.094-0.047-0.141l-0.516-0.422v-0.469l0.516-0.422q0.094-0.094 0.047-0.188zM17.484 13.313q-0.328 0-0.563-0.234t-0.234-0.563q0-0.375 0.234-0.609t0.563-0.234q0.375 0 0.609 0.234t0.234 0.609q0 0.328-0.234 0.563t-0.609 0.234zM4.734 9h8.531q0.188 0 0.352-0.141t0.164-0.328v-0.047q0-0.188-0.164-0.328t-0.352-0.141h-0.281q0-1.125-0.539-2.039t-1.43-1.43v0.938q0 0.234-0.164 0.375t-0.352 0.141-0.352-0.141-0.164-0.375v-1.359l-0.469-0.094t-0.516-0.047-0.516 0.047l-0.469 0.094v1.359q0 0.234-0.164 0.375t-0.352 0.141-0.352-0.141-0.164-0.375v-0.938q-0.891 0.516-1.43 1.43t-0.539 2.039h-0.281q-0.188 0-0.328 0.141t-0.141 0.328v0.047q0 0.188 0.141 0.328t0.328 0.141zM9 12.984q1.406 0 2.461-0.844t1.383-2.156h-7.688q0.328 1.313 1.383 2.156t2.461 0.844z"></path>
        </symbol>
        <symbol id="icon-manager" viewBox="0 0 24 24">
            <path d="M13.875 14.813c0 1.036-0.839 1.875-1.875 1.875s-1.875-0.839-1.875-1.875c0-1.036 0.839-1.875 1.875-1.875s1.875 0.839 1.875 1.875z"></path>
            <path d="M7.289 17.503l-2.311-1.534c-0.029-0.020-0.065-0.031-0.104-0.031s-0.075 0.012-0.104 0.032l0.001-0-1.181 0.788c-0.051 0.034-0.083 0.091-0.083 0.156 0 0.056 0.025 0.107 0.064 0.141l0 0 2.85 2.482c0.164 0.143 0.38 0.231 0.616 0.231 0.117 0 0.23-0.022 0.333-0.061l-0.006 0.002 1.449-0.538v4.455h6.375v-4.455l1.448 0.538c0.097 0.037 0.209 0.059 0.327 0.059 0.236 0 0.452-0.087 0.617-0.231l-0.001 0.001 2.85-2.482c0.040-0.035 0.064-0.085 0.064-0.141 0-0.065-0.033-0.122-0.083-0.156l-0.001-0-1.181-0.788c-0.029-0.020-0.065-0.031-0.104-0.031s-0.075 0.012-0.104 0.032l0.001-0-2.311 1.535-1.316-0.644c-0.217-0.108-0.472-0.172-0.742-0.172h-2.652l0.938 3-0.938 1.5-0.938-1.5 0.938-3h-2.653c-0.27 0-0.525 0.063-0.751 0.176l0.010-0.004z"></path>
            <path d="M11.625 8.25h0.75v0.75h-0.75v-0.75z"></path>
            <path d="M11.625 9.75h0.75v0.75h-0.75v-0.75z"></path>
            <path d="M11.625 11.25h0.75v0.75h-0.75v-0.75z"></path>
            <path d="M19.875 12.75h0.75v0.75h-0.75v-0.75z"></path>
            <path d="M19.875 14.25h0.75v0.75h-0.75v-0.75z"></path>
            <path d="M3.375 12.75h0.75v0.75h-0.75v-0.75z"></path>
            <path d="M3.375 14.25h0.75v0.75h-0.75v-0.75z"></path>
            <path d="M15.375 3.75c0-1.864-1.511-3.375-3.375-3.375s-3.375 1.511-3.375 3.375c0 1.864 1.511 3.375 3.375 3.375v0c1.864 0 3.375-1.511 3.375-3.375v0zM11.719 3.375h0.563c0.013-0.001 0.028-0.001 0.044-0.001 0.632 0 1.147 0.498 1.175 1.123l0 0.002c-0.025 0.609-0.515 1.097-1.123 1.116l-0.002 0v0.384h-0.75v-0.384c-0.61-0.020-1.1-0.507-1.125-1.114l-0-0.002h0.75c0.027 0.214 0.208 0.377 0.427 0.377 0.015 0 0.029-0.001 0.044-0.002l-0.002 0h0.563c0.013 0.001 0.027 0.002 0.042 0.002 0.219 0 0.4-0.163 0.427-0.375l0-0.002c-0.027-0.214-0.208-0.377-0.427-0.377-0.015 0-0.029 0.001-0.044 0.002l0.002-0h-0.563c-0.013 0.001-0.028 0.001-0.044 0.001-0.632 0-1.147-0.498-1.175-1.123l-0-0.002c0.025-0.609 0.515-1.097 1.123-1.116l0.002-0v-0.384h0.75v0.384c0.61 0.020 1.1 0.507 1.125 1.114l0 0.002h-0.75c-0.027-0.214-0.208-0.377-0.427-0.377-0.015 0-0.029 0.001-0.044 0.002l0.002-0h-0.563c-0.013-0.001-0.027-0.002-0.042-0.002-0.219 0-0.4 0.163-0.427 0.375l-0 0.002c0.027 0.214 0.208 0.377 0.427 0.377 0.015 0 0.029-0.001 0.044-0.002l-0.002 0z"></path>
            <path d="M20.25 4.875c-1.864 0-3.375 1.511-3.375 3.375s1.511 3.375 3.375 3.375c1.864 0 3.375-1.511 3.375-3.375v0c0-1.864-1.511-3.375-3.375-3.375v0zM19.969 7.875h0.563c0.013-0.001 0.028-0.001 0.044-0.001 0.632 0 1.147 0.498 1.175 1.123l0 0.002c-0.025 0.609-0.515 1.097-1.123 1.116l-0.002 0v0.384h-0.75v-0.384c-0.61-0.020-1.1-0.507-1.125-1.114l-0-0.002h0.75c0.027 0.214 0.208 0.377 0.427 0.377 0.015 0 0.029-0.001 0.044-0.002l-0.002 0h0.563c0.013 0.001 0.027 0.002 0.042 0.002 0.219 0 0.4-0.163 0.427-0.375l0-0.002c-0.027-0.214-0.208-0.377-0.427-0.377-0.015 0-0.029 0.001-0.044 0.002l0.002-0h-0.563c-0.013 0.001-0.028 0.001-0.044 0.001-0.632 0-1.147-0.498-1.175-1.123l-0-0.002c0.025-0.609 0.515-1.097 1.123-1.116l0.002-0v-0.384h0.75v0.384c0.61 0.020 1.1 0.507 1.125 1.114l0 0.002h-0.75c-0.027-0.214-0.208-0.377-0.427-0.377-0.015 0-0.029 0.001-0.044 0.002l0.002-0h-0.563c-0.013-0.001-0.027-0.002-0.042-0.002-0.219 0-0.4 0.163-0.427 0.375l-0 0.002c0.027 0.214 0.208 0.377 0.427 0.377 0.015 0 0.029-0.001 0.044-0.002l-0.002 0z"></path>
            <path d="M3.75 4.875c-1.864 0-3.375 1.511-3.375 3.375s1.511 3.375 3.375 3.375c1.864 0 3.375-1.511 3.375-3.375v0c0-1.864-1.511-3.375-3.375-3.375v0zM3.469 7.875h0.563c0.013-0.001 0.028-0.001 0.044-0.001 0.632 0 1.147 0.498 1.175 1.123l0 0.002c-0.025 0.609-0.515 1.097-1.123 1.116l-0.002 0v0.384h-0.75v-0.384c-0.61-0.020-1.1-0.507-1.125-1.114l-0-0.002h0.75c0.027 0.214 0.208 0.377 0.427 0.377 0.015 0 0.029-0.001 0.044-0.002l-0.002 0h0.563c0.013 0.001 0.027 0.002 0.042 0.002 0.219 0 0.4-0.163 0.427-0.375l0-0.002c-0.027-0.214-0.208-0.377-0.427-0.377-0.015 0-0.029 0.001-0.044 0.002l0.002-0h-0.563c-0.013 0.001-0.028 0.001-0.044 0.001-0.632 0-1.147-0.498-1.175-1.123l-0-0.002c0.025-0.609 0.515-1.097 1.123-1.116l0.002-0v-0.384h0.75v0.384c0.61 0.020 1.1 0.507 1.125 1.114l0 0.002h-0.75c-0.027-0.214-0.208-0.377-0.427-0.377-0.015 0-0.029 0.001-0.044 0.002l0.002-0h-0.563c-0.013-0.001-0.027-0.002-0.042-0.002-0.219 0-0.4 0.163-0.427 0.375l-0 0.002c0.027 0.214 0.208 0.377 0.427 0.377 0.015 0 0.029-0.001 0.044-0.002l-0.002 0z"></path>
        </symbol>
        <symbol id="icon-leader" viewBox="0 0 24 24">
            <path d="M12.029 1.5c-0.332 0-0.659 0.037-0.979 0.103-0.054 0.011-0.103 0.035-0.157 0.048-2.135 0.517-3.86 2.414-3.767 4.708l0.002 0.073c-0.001 0.043-0.011 0.083-0.011 0.126 0 0.122 0.026 0.236 0.034 0.355l0.018 0.371 0.018-0.009c0.228 1.626 1.206 2.994 2.57 3.734-0.341 0.105-0.669 0.225-0.966 0.383-0.845 0.449-1.493 1.146-1.922 2.061-0.858 1.83-0.959 4.486-0.816 8.484l0.016 0.562h11.758l0.041-0.546c0.296-3.79 0.122-6.467-0.816-8.341-0.62-1.239-1.61-2.058-2.895-2.521 1.642-0.82 2.783-2.538 2.783-4.532 0-0.041-0.010-0.079-0.011-0.119l0.011-0.002-0.034-0.477c-0.008-0.106-0.039-0.204-0.055-0.307-0.011-0.061-0.021-0.121-0.034-0.181-0.297-1.591-1.362-2.867-2.765-3.509-0.052-0.026-0.099-0.055-0.152-0.078-0.213-0.089-0.436-0.152-0.661-0.211-0.086-0.023-0.167-0.058-0.254-0.076-0.312-0.063-0.631-0.098-0.957-0.099zM12.215 2.266c1.917 0.277 3.597 1.558 3.59 3.381-0.941 1.302-5.428-1.894-5.323-1.986 0 0-2.039 1.868-2.329 1.941 0.134-2.441 2.67-3.373 4.062-3.337zM10.527 4.739c1.619 1.302 3.351 2.205 5.242 1.964-0.075 2.089-1.716 3.736-3.74 3.736-2.035 0-3.676-1.665-3.733-3.771 0.862-0.506 1.622-1.145 2.231-1.93zM10.802 8.239c-0.625 0.020-0.783 0.884-0.207 1.128 0.949 0.446 1.946 0.366 2.842 0.006 0.694-0.3 0.28-1.353-0.429-1.091-0.693 0.277-1.282 0.319-1.922 0.017-0.088-0.045-0.186-0.066-0.284-0.062zM11.438 12.001l1.184 0.026c0.002 0.138 0.015 0.296-0.052 0.415h-1.047c-0.075-0.111-0.065-0.296-0.084-0.44zM10.173 12.113c0.033 0.397 0.155 0.804 0.445 1.169-0.246 1.763-0.493 3.201-0.743 5.025l-0.034 0.252 2.129 2.675 2.438-2.659-0.043-0.277c-0.292-1.813-0.583-3.253-0.872-4.997 0.253-0.337 0.372-0.712 0.398-1.091 0.973 0.359 1.645 0.972 2.124 1.93 0.704 1.406 0.845 3.895 0.645 7.182h-9.395c-0.088-3.479 0.031-6.020 0.661-7.363 0.339-0.724 0.774-1.189 1.409-1.527 0.241-0.128 0.527-0.229 0.838-0.319zM11.729 13.681h0.652c0.265 1.578 0.521 2.939 0.782 4.523l-1.134 1.229-0.97-1.213c0.223-1.592 0.446-2.96 0.67-4.539z"></path>
        </symbol>
        <symbol id="icon-logo" viewBox="0 0 82 32">
            <path fill="#f68a1f" d="M16.058 28.144c-0.016 0-0.035 0-0.054 0-6.702 0-12.135-5.433-12.135-12.135s5.433-12.135 12.135-12.135c0.019 0 0.038 0 0.057 0h-0.003c0.286 0 0.568 0.013 0.849 0.033l-3.641 2.597 1.388 1.413-0.826 0.615c-0.566-0.199-1.321-0.365-1.596-0.449-0.45-0.136-0.555 0.175-0.877 0.431-0.355 0.282-1.441 1.261-1.441 1.261-0.361 0.448-0.425 0.611-0.331 1.714l-2.807 2.293c-0.014 0.011-0.023 0.027-0.023 0.046 0 0.032 0.026 0.058 0.058 0.058 0.009 0 0.018-0.002 0.026-0.006l2.841-1.421c0.339 1.554 1.327 5.47 1.38 5.912 0.063 0.524 0.377 2.65 0.795 3.431s1.213 1.259 1.499 1.593c0.245 0.333 0.487 0.625 0.744 0.902l-0.006-0.007c0.252 0.201 1.177 0.072 1.769-0.32s3.833 0.092 5.277-0.421c2.211-0.787 3.75-2.686 5-3.463 0.428-0.153 0.927-0.268 1.444-0.322l0.029-0.002c-1.635 4.907-6.186 8.382-11.548 8.382-0 0-0.001 0-0.001 0h0zM14.426 10.087c0.098 0.093 0.15 0.322 0.11 0.338-0.11 0.119-0.196 0.262-0.249 0.42l-0.002 0.008c-0.060 0.174-0.948 0.241-1.118 0.329s-0.586 0.5-0.759 0.534 0.907 2.343 1.084 2.778 1.368 1.183 1.708 1.462c0.39 0.363 0.722 0.78 0.986 1.241l0.014 0.026-0.767 1.881 0.513 0.301s0.782-1.874 1.090-2.476c0.257-0.501 1.155-1.573 2.010-1.858 0.437-0.13 0.939-0.205 1.459-0.205 0.591 0 1.159 0.097 1.689 0.275l-0.037-0.011c0.523 0.24 0.971 0.551 1.354 0.927l-0.001-0.001 0.32-0.562s-0.347-0.597-1.455-1.104c0.196-0.936 0.643-1.746 1.267-2.381l-0.001 0.001c0.811-0.838 2.332-1.117 3.389-1.211-1.369-2.822-3.709-4.992-6.577-6.108l-0.083-0.028-3.246 1.844 1.472 1.499zM5.203 7.075l-1.452-1.451c-2.090 2.446-3.459 5.565-3.747 8.991l-0.004 0.058h2.055c0.281-2.92 1.424-5.529 3.167-7.62l-0.018 0.022zM26.396 3.748c-2.449-2.088-5.57-3.456-8.998-3.744l-0.058-0.004v2.052c2.921 0.281 5.532 1.423 7.626 3.166l-0.023-0.018zM14.684 2.052v-2.052c-3.486 0.291-6.607 1.659-9.078 3.766l0.022-0.019 1.453 1.452c2.071-1.724 4.682-2.866 7.546-3.143l0.057-0.004zM0 17.327c0.292 3.485 1.661 6.603 3.769 9.071l-0.018-0.022 1.452-1.452c-1.725-2.069-2.867-4.678-3.144-7.541l-0.004-0.057zM5.628 28.252c2.449 2.088 5.569 3.457 8.997 3.744l0.058 0.004v-2.054c-2.921-0.28-5.532-1.422-7.626-3.164l0.023 0.018zM32.023 14.673c-0.292-3.485-1.661-6.603-3.769-9.071l0.018 0.022-1.453 1.451c1.725 2.069 2.867 4.678 3.144 7.541l0.004 0.057zM17.339 29.946v2.054c3.486-0.291 6.607-1.66 9.079-3.767l-0.022 0.019-1.453-1.451c-2.071 1.724-4.683 2.865-7.547 3.141l-0.057 0.004zM26.82 24.925l1.453 1.452c2.089-2.446 3.458-5.565 3.746-8.991l0.004-0.058h-2.055c-0.281 2.919-1.423 5.529-3.166 7.62l0.018-0.022z"></path>
            <path fill="#00425a" d="M46.801 10.847c0.068 0.244 0.107 0.524 0.108 0.813v0.001c0 0.008 0 0.017 0 0.026 0 0.311-0.050 0.611-0.143 0.891l0.006-0.020c-0.095 0.284-0.246 0.526-0.441 0.725l0-0c-0.211 0.209-0.468 0.372-0.753 0.475l-0.014 0.005c-0.31 0.109-0.668 0.172-1.040 0.172-0.026 0-0.051-0-0.077-0.001l0.004 0h-4.459v-1.515h4.503c0.025 0.002 0.055 0.004 0.084 0.004 0.23 0 0.441-0.085 0.603-0.225l-0.001 0.001c0.133-0.142 0.214-0.333 0.214-0.543 0-0.013-0-0.026-0.001-0.039l0 0.002c-0-0.11-0.018-0.216-0.051-0.315l0.002 0.007c-0.032-0.097-0.086-0.18-0.155-0.246l-0-0c-0.087-0.078-0.191-0.138-0.306-0.174l-0.006-0.002c-0.143-0.045-0.308-0.071-0.479-0.071-0.016 0-0.031 0-0.047 0.001l0.002-0h-1.956c-0.032 0.001-0.070 0.002-0.108 0.002-0.41 0-0.804-0.072-1.169-0.203l0.024 0.008c-0.308-0.115-0.57-0.293-0.779-0.52l-0.001-0.001c-0.18-0.203-0.317-0.449-0.392-0.72l-0.003-0.013c-0.068-0.238-0.107-0.51-0.108-0.792v-0c-0-0.007-0-0.016-0-0.025 0-0.305 0.048-0.599 0.137-0.875l-0.006 0.020c0.091-0.28 0.239-0.52 0.431-0.716l-0 0c0.208-0.205 0.461-0.365 0.743-0.464l0.014-0.004c0.305-0.105 0.656-0.166 1.021-0.166 0.023 0 0.045 0 0.068 0.001l-0.003-0h4.089v1.516h-4.132c-0.025-0.003-0.053-0.004-0.082-0.004-0.217 0-0.414 0.081-0.565 0.213l0.001-0.001c-0.123 0.135-0.199 0.316-0.199 0.514 0 0.012 0 0.024 0.001 0.036l-0-0.002c0 0.102 0.016 0.201 0.046 0.294l-0.002-0.007c0.030 0.093 0.081 0.172 0.146 0.236l0 0c0.079 0.075 0.176 0.133 0.283 0.167l0.005 0.001c0.135 0.041 0.289 0.065 0.45 0.065 0.017 0 0.033-0 0.050-0.001l-0.002 0h1.968c0.032-0.001 0.069-0.002 0.106-0.002 0.419 0 0.821 0.073 1.193 0.208l-0.024-0.008c0.314 0.118 0.582 0.298 0.8 0.525l0.001 0.001c0.188 0.204 0.329 0.455 0.404 0.732l0.003 0.012zM55.332 7.3c0.589 0.63 0.887 1.591 0.887 2.858 0 1.26-0.299 2.214-0.887 2.835s-1.45 0.94-2.553 0.94h-1.003c-1.104 0-1.963-0.316-2.553-0.94s-0.888-1.576-0.888-2.835c0-1.266 0.299-2.228 0.887-2.857s1.45-0.952 2.554-0.952h1.003c1.103-0.001 1.963 0.319 2.554 0.95zM54.692 10.146c0-0.81-0.152-1.401-0.452-1.756-0.296-0.349-0.787-0.526-1.46-0.526h-1.003c-0.674 0-1.167 0.177-1.466 0.526-0.303 0.354-0.457 0.949-0.457 1.767 0 0.811 0.152 1.397 0.452 1.744 0.295 0.342 0.79 0.516 1.472 0.516h1.003c0.667 0 1.157-0.175 1.456-0.522 0.303-0.351 0.457-0.94 0.457-1.75zM60.192 12.326c-0.163-0.051-0.304-0.134-0.421-0.241l0.001 0.001c-0.099-0.095-0.173-0.214-0.214-0.348l-0.002-0.006c-0.042-0.136-0.066-0.292-0.066-0.454 0-0.003 0-0.006 0-0.009v0-4.92h-1.517v4.931c-0 0.010-0 0.022-0 0.034 0 0.364 0.056 0.714 0.159 1.044l-0.007-0.025c0.105 0.33 0.278 0.614 0.502 0.847l-0.001-0.001c0.244 0.243 0.54 0.433 0.872 0.551l0.016 0.005c0.359 0.126 0.773 0.199 1.204 0.199 0.029 0 0.059-0 0.088-0.001l-0.004 0h3.293v-1.515h-3.216c-0.016 0-0.035 0.001-0.055 0.001-0.226 0-0.444-0.034-0.649-0.098l0.016 0.004zM70.816 7.241l2.546 6.692h-1.675l-0.52-1.375h-4.080l-0.542 1.375h-1.665l2.646-6.694c0.118-0.336 0.341-0.61 0.629-0.79l0.006-0.004c0.275-0.144 0.6-0.229 0.946-0.229 0.027 0 0.053 0 0.080 0.002l-0.004-0c0.021-0.001 0.046-0.001 0.071-0.001 0.343 0 0.666 0.085 0.95 0.234l-0.011-0.005c0.292 0.182 0.512 0.458 0.62 0.784l0.003 0.010zM70.594 11.042l-1.171-3.1c-0.030-0.103-0.124-0.177-0.235-0.177-0.006 0-0.012 0-0.018 0.001l0.001-0c-0.004-0-0.009-0-0.015-0-0.116 0-0.215 0.075-0.25 0.18l-0.001 0.002-1.221 3.095zM79.777 10.943c0.476-0.159 0.865-0.47 1.119-0.875l0.005-0.009c0.122-0.194 0.22-0.419 0.283-0.658l0.004-0.017c0.057-0.216 0.091-0.464 0.091-0.72v-0c0-0.001 0-0.003 0-0.004 0-0.312-0.052-0.612-0.148-0.891l0.006 0.019c-0.099-0.291-0.254-0.54-0.452-0.746l0.001 0.001c-0.214-0.216-0.473-0.388-0.761-0.501l-0.015-0.005c-0.31-0.12-0.669-0.189-1.044-0.189-0.024 0-0.047 0-0.071 0.001l0.004-0h-4.104v1.516h4.149c0.024-0.002 0.052-0.004 0.081-0.004 0.238 0 0.454 0.096 0.611 0.252l-0-0c0.136 0.156 0.218 0.362 0.218 0.587 0 0.007-0 0.014-0 0.021l0-0.001c-0 0.123-0.020 0.242-0.056 0.354l0.002-0.008c-0.036 0.111-0.090 0.207-0.16 0.29l0.001-0.001c-0.074 0.084-0.166 0.151-0.27 0.196l-0.005 0.002c-0.117 0.049-0.252 0.078-0.394 0.078-0.010 0-0.019-0-0.029-0l0.001 0h-2.867c-0.034-0.003-0.073-0.005-0.112-0.005-0.325 0-0.623 0.118-0.854 0.312l0.002-0.002c-0.194 0.231-0.312 0.531-0.312 0.858 0 0.041 0.002 0.081 0.005 0.121l-0-0.005v3.025h1.515v-2.773c0-0.060 0.010-0.070 0.070-0.070h1.853l1.679 2.844h1.694z"></path>
            <path fill="#00425a" d="M51.29 18.414c0.274 0.309 0.441 0.717 0.441 1.165 0 0.026-0.001 0.052-0.002 0.077l0-0.004v5.998h-1.528v-5.933c0.001-0.007 0.001-0.016 0.001-0.024 0-0.079-0.028-0.152-0.075-0.209l0 0.001c-0.047-0.048-0.113-0.078-0.185-0.078-0.064 0-0.123 0.023-0.168 0.062l0-0c-0.055 0.048-0.098 0.11-0.124 0.179l-0.001 0.003-1.788 4.695c-0.132 0.409-0.352 0.759-0.639 1.040l-0 0c-0.296 0.249-0.682 0.399-1.103 0.399-0.039 0-0.077-0.001-0.115-0.004l0.005 0c-0.037 0.003-0.080 0.005-0.123 0.005-0.461 0-0.878-0.184-1.183-0.483l0 0c-0.27-0.311-0.435-0.721-0.435-1.168 0-0.028 0.001-0.056 0.002-0.084l-0 0.004v-4.337c0.001-0.007 0.001-0.014 0.001-0.022 0-0.080-0.030-0.153-0.079-0.209l0 0c-0.050-0.049-0.118-0.080-0.193-0.080-0.065 0-0.124 0.022-0.171 0.060l0.001-0c-0.054 0.050-0.095 0.111-0.121 0.181l-0.001 0.003-2.231 6h-1.62l2.337-6.278c0.131-0.408 0.349-0.758 0.634-1.040l0-0c0.333-0.248 0.753-0.397 1.208-0.397 0.501 0 0.96 0.181 1.314 0.481l-0.003-0.002c0.274 0.309 0.441 0.717 0.441 1.165 0 0.026-0.001 0.052-0.002 0.077l0-0.004v4.348c-0 0.006-0.001 0.013-0.001 0.020 0 0.077 0.028 0.148 0.074 0.203l-0-0c0.042 0.047 0.103 0.077 0.171 0.077 0.004 0 0.008-0 0.011-0l-0.001 0c0.005 0 0.011 0 0.017 0 0.14 0 0.257-0.097 0.288-0.227l0-0.002 1.789-4.698c0.131-0.408 0.349-0.757 0.634-1.040l0-0c0.333-0.248 0.753-0.397 1.208-0.397 0.501 0 0.96 0.181 1.314 0.481l-0.003-0.002zM59.016 18.959l2.546 6.692h-1.675l-0.464-1.228h-4.193l-0.483 1.228h-1.665l2.647-6.694c0.117-0.336 0.339-0.61 0.627-0.79l0.006-0.004c0.275-0.144 0.6-0.229 0.946-0.229 0.027 0 0.053 0 0.080 0.002l-0.004-0c0.021-0.001 0.046-0.001 0.071-0.001 0.343 0 0.667 0.085 0.951 0.234l-0.011-0.005c0.292 0.183 0.512 0.458 0.62 0.785l0.003 0.010zM58.85 22.908l-1.227-3.247c-0.030-0.103-0.124-0.177-0.235-0.177-0.006 0-0.012 0-0.018 0.001l0.001-0c-0.004-0-0.009-0-0.014-0-0.116 0-0.215 0.075-0.25 0.18l-0.001 0.002-1.278 3.242zM69.435 18.067v5.933c0 0.005 0 0.010 0 0.016 0 0.078-0.031 0.15-0.081 0.202l0-0c-0.057 0.051-0.132 0.082-0.215 0.082-0.009 0-0.018-0-0.027-0.001l0.001 0c-0.007 0-0.015 0.001-0.022 0.001-0.075 0-0.144-0.024-0.201-0.064l0.001 0.001c-0.059-0.047-0.107-0.106-0.14-0.173l-0.001-0.003-2.144-4.687c-0.14-0.41-0.365-0.76-0.657-1.042l-0.001-0.001c-0.304-0.249-0.696-0.399-1.123-0.399-0.041 0-0.081 0.001-0.122 0.004l0.005-0c-0.605 0-1.062 0.161-1.36 0.478-0.278 0.308-0.447 0.717-0.447 1.166 0 0.026 0.001 0.051 0.002 0.076l-0-0.004v5.998h1.516v-5.933c-0-0.006-0.001-0.014-0.001-0.021 0-0.080 0.031-0.153 0.082-0.208l-0 0c0.059-0.051 0.136-0.082 0.221-0.082 0.011 0 0.021 0 0.031 0.001l-0.001-0c0.003-0 0.005-0 0.008-0 0.16 0 0.295 0.103 0.344 0.246l0.001 0.003 2.144 4.686c0.077 0.226 0.169 0.42 0.28 0.602l-0.007-0.013c0.108 0.177 0.237 0.328 0.386 0.456l0.003 0.002c0.152 0.127 0.333 0.228 0.53 0.29l0.011 0.003c0.2 0.062 0.429 0.098 0.667 0.098 0.013 0 0.027-0 0.040-0l-0.002 0c0.039 0.003 0.085 0.005 0.131 0.005 0.473 0 0.903-0.183 1.223-0.483l-0.001 0.001c0.281-0.309 0.453-0.721 0.453-1.174 0-0.027-0.001-0.054-0.002-0.080l0 0.004v-5.986z"></path>
        </symbol>
        <symbol id="icon-facebook" viewBox="0 0 24 24">
            <path d="M12 0C5.372 0 0 5.372 0 12s5.372 12 12 12 12-5.372 12-12S18.628 0 12 0zm2.648 9.966-.136 1.795H12.67v6.234h-2.325v-6.234H9.103V9.966h1.242V8.761c0-.53.014-1.35.398-1.861.408-.539.966-.905 1.927-.905 1.566 0 2.222.225 2.222.225l-.309 1.837s-.516-.15-.998-.15-.914.173-.914.656v1.402h1.978z"/>
        </symbol>
        <symbol id="icon-instagram" viewBox="0 0 24 24">
            <path d="M12.812.025c6.089 0 11.071 4.982 11.071 11.071v1.73c0 6.089-4.982 11.071-11.071 11.071h-1.73C4.993 23.897.011 18.915.011 12.826v-1.73C.011 5.007 4.993.025 11.082.025zm-.647 6h-.154c-1.283 0-2.565.042-2.565.042a3.392 3.392 0 0 0-3.392 3.392s-.039 1.101-.042 2.284v.155c0 1.324.042 2.693.042 2.693a3.392 3.392 0 0 0 3.392 3.392s1.199.042 2.438.042c1.324 0 2.735-.042 2.735-.042a3.32 3.32 0 0 0 3.35-3.35s.042-1.354.042-2.65l-.001-.304c-.006-1.163-.042-2.261-.042-2.261a3.32 3.32 0 0 0-3.35-3.35s-1.221-.039-2.454-.042zm-.154 1.08c1.052 0 2.4.035 2.4.035 1.536 0 2.485.949 2.485 2.485 0 0 .035 1.326.035 2.366 0 1.063-.035 2.435-.035 2.435 0 1.536-.949 2.485-2.485 2.485 0 0-1.193.029-2.227.034l-.277.001c-1.016 0-2.254-.035-2.254-.035-1.536 0-2.527-.991-2.527-2.527 0 0-.035-1.377-.035-2.462 0-1.016.035-2.296.035-2.296 0-1.536.991-2.485 2.527-2.485 0 0 1.306-.035 2.358-.035zm0 1.846a3.074 3.074 0 1 0 0 6.149 3.074 3.074 0 0 0 0-6.149zm0 1.074a2 2 0 1 1 .001 3.999 2 2 0 0 1-.001-3.999zm3.221-1.927c-.41 0-.743.334-.743.746s.333.746.743.746.743-.334.743-.746-.332-.746-.743-.746z"/>
        </symbol>
        <symbol id="icon-telegram" viewBox="0 0 24 24">
            <path d="M12 0C5.373 0 0 5.373 0 12s5.373 12 12 12 12-5.373 12-12S18.627 0 12 0zm5.894 8.221-1.97 9.28c-.145.658-.537.818-1.084.508l-3-2.21-1.446 1.394a.759.759 0 0 1-.6.295h-.005l.213-3.054 5.56-5.022c.24-.213-.054-.334-.373-.121L8.32 13.617l-2.96-.924c-.64-.203-.658-.64.135-.954l11.566-4.458c.538-.196 1.006.128.832.941z"/>
        </symbol>
        <symbol id="icon-youtube" viewBox="0 0 24 24">
            <path d="m10.402 14.311 3.928-2.306-3.928-2.306z"/><path d="M12 0C5.372 0 0 5.372 0 12s5.372 12 12 12 12-5.372 12-12S18.628 0 12 0zm6 14.147c0 2.067-2.067 2.067-2.067 2.067H8.067C6 16.214 6 14.147 6 14.147V9.858c0-2.067 2.067-2.067 2.067-2.067h7.866C18 7.791 18 9.858 18 9.858v4.289z"/>
        </symbol>
        <symbol id="icon-call" viewBox="0 0 24 24">
            <path stroke-linejoin="round" stroke-linecap="round" stroke-miterlimit="4" stroke-width="2" d="M15.050 5c2 0.4 3.55 1.95 3.945 3.918l0.005 0.032M15.050 1c4.181 0.478 7.467 3.76 7.946 7.898l0.004 0.042M22 16.92v3c0 0.002 0 0.005 0 0.008 0 1.105-0.895 2-2 2-0.063 0-0.126-0.003-0.188-0.009l0.008 0.001c-3.245-0.362-6.177-1.457-8.705-3.116l0.075 0.046c-2.432-1.561-4.439-3.568-5.953-5.923l-0.047-0.077c-1.619-2.465-2.715-5.41-3.062-8.582l-0.008-0.088c-0.005-0.054-0.008-0.117-0.008-0.18 0-1.104 0.894-1.999 1.998-2h3c0.006-0 0.013-0 0.020-0 1.006 0 1.838 0.742 1.979 1.709l0.001 0.011c0.141 1.050 0.386 1.998 0.73 2.898l-0.030-0.088c0.081 0.209 0.128 0.451 0.128 0.704 0 0.548-0.221 1.045-0.578 1.406l-1.27 1.27c1.449 2.517 3.483 4.551 5.923 5.959l0.077 0.041 1.27-1.27c0.361-0.357 0.858-0.578 1.406-0.578 0.253 0 0.495 0.047 0.717 0.133l-0.014-0.005c0.812 0.314 1.76 0.559 2.744 0.693l0.066 0.007c0.978 0.142 1.721 0.974 1.721 1.98 0 0.017-0 0.035-0.001 0.052l0-0.003z"></path>
        </symbol>
    </defs>
</svg>