<svg  width="32" height="32" aria-hidden="true" style="position:absolute;width:0;height:0;overflow:hidden" xmlns="http://www.w3.org/2000/svg">
    <defs>
        <symbol id="icon-company" viewBox="0 0 32 32">
            <path d="M14.667 2.667a4 4 0 0 1 4 4v1.561A4.004 4.004 0 0 1 20 8h5.333a4 4 0 0 1 4 4v13.333a4 4 0 0 1-4 4H6.666a4 4 0 0 1-4-4V6.666a4 4 0 0 1 4-4h8zm0 2.666h-8c-.736 0-1.333.597-1.333 1.333v18.667c0 .736.597 1.333 1.333 1.333H16v-20c0-.736-.597-1.333-1.333-1.333zm10.666 5.334H20c-.736 0-1.333.597-1.333 1.333v14.667h6.667c.736 0 1.333-.597 1.333-1.333V12.001c0-.736-.597-1.333-1.333-1.333zm-13.333 8a1.333 1.333 0 0 1 0 2.666H9.333a1.333 1.333 0 0 1 0-2.666H12zm12 0a1.333 1.333 0 0 1 0 2.666h-2.667a1.333 1.333 0 0 1 0-2.666H24zm-12-5.334a1.333 1.333 0 0 1 0 2.666H9.333a1.333 1.333 0 0 1 0-2.666H12zm12 0a1.333 1.333 0 0 1 0 2.666h-2.667a1.333 1.333 0 0 1 0-2.666H24zM12 8a1.333 1.333 0 0 1 0 2.666H9.333a1.333 1.333 0 0 1 0-2.666H12z"/>
        </symbol>
        <symbol id="icon-home" viewBox="0 0 32 32">
            <path fill="none" stroke="#000" stroke-linecap="round" stroke-linejoin="round" stroke-width="3.146" d="m25.744 14.696 3.146-6.292h-6.292l3.146-6.292M19.451 20.988h-6.292v9.439h6.292v-9.439zM16.305 5.257 3.72 14.239M6.867 30.427V12.006m18.877 10.555v7.866m-22.024 0h25.17"/>
        </symbol>
        <symbol id="icon-light-flash" viewBox="0 0 32 32">
            <path fill="#324a5e" d="M32 16c0 8.837-7.163 16-16 16S0 24.837 0 16 7.163 0 16 0s16 7.163 16 16z"/><path fill="#2b3b4e" d="M18.524 31.801c6.815-1.08 12.197-6.462 13.277-13.277L19.058 5.781l-6.491 8.185-2.814 1.806 5.881 5.881-2.692 4.566 5.582 5.582z"/><path fill="#ffd15d" d="m19.058 5.781-2.142 7.157a1.419 1.419 0 0 0 .952 1.766l3.866 1.157a.961.961 0 0 1 .387 1.617l-9.181 8.741 2.142-7.157a1.419 1.419 0 0 0-.952-1.766l-3.866-1.157a.961.961 0 0 1-.387-1.617l9.181-8.741z"/><path fill="#f9b54c" d="m21.735 15.861-3.866-1.157a1.418 1.418 0 0 1-.952-1.766l2.142-7.157-3.04 2.895V23.29l6.104-5.812a.96.96 0 0 0-.387-1.617z"/>
        </symbol>
        <symbol id="icon-store" viewBox="0 0 32 32">
            <path d="M25.531 3.961a2.681 2.681 0 0 0-2.285-1.295H8.755c-.931 0-1.807.496-2.285 1.295L2.858 9.98c-.12.195-.191.432-.191.685v.002a5.273 5.273 0 0 0 1.338 3.496L4 14.158v11.176a2.67 2.67 0 0 0 2.667 2.667h18.667a2.67 2.67 0 0 0 2.667-2.667V14.158a5.265 5.265 0 0 0 1.333-3.489v-.002c0-.253-.071-.49-.194-.691l.003.006-3.612-6.019zm1.114 7.04A2.674 2.674 0 0 1 24 13.333a2.67 2.67 0 0 1-2.667-2.667c0-.091-.033-.171-.052-.256l.027-.005-1.015-5.072h2.952l3.4 5.668zm-12.22-5.668h3.148l1.084 5.42c-.047 1.429-1.217 2.58-2.657 2.58s-2.611-1.151-2.657-2.58l1.083-5.42zm-5.67 0h2.952l-1.013 5.072.027.005c-.02.085-.053.165-.053.256a2.67 2.67 0 0 1-2.667 2.667 2.671 2.671 0 0 1-2.644-2.318l-.001-.014 3.4-5.668zm4.578 20v-4h5.333v4h-5.333zm8 0v-4a2.67 2.67 0 0 0-2.667-2.667h-5.333a2.67 2.67 0 0 0-2.667 2.667v4h-4V15.81c.428.111.869.189 1.333.189h.003c1.59 0 3.017-.698 3.992-1.804l.005-.006c.977 1.109 2.409 1.809 4 1.809s3.023-.7 4-1.809a5.31 5.31 0 0 0 3.997 1.809h.003c.464 0 .905-.079 1.333-.189v9.523h-4z"/>
        </symbol>
        <symbol id="icon-energy" viewBox="0 0 32 32">
           <path fill="#FFB841" d="m26.87 12.49-10 18c-.18.32-.51.51-.87.51-.08 0-.17-.01-.25-.03-.44-.12-.75-.51-.75-.97V19H6c-.34 0-.65-.17-.84-.45-.18-.28-.21-.64-.08-.95l7-16c.16-.36.52-.6.92-.6h6a.999.999 0 0 1 .93 1.37L16.48 11H26c.35 0 .68.19.86.49.18.31.19.69.01 1z"/>
        </symbol>
        <symbol id="icon-phone" fill="none" viewBox="0 0 24 24">
            <path d="M15 3C16.5315 3.17014 17.9097 3.91107 19 5C20.0903 6.08893 20.8279 7.46869 21 9M14.5 6.5C15.2372 6.64382 15.9689 6.96892 16.5 7.5C17.0311 8.03108 17.3562 8.76284 17.5 9.5M8.20049 15.799C1.3025 8.90022 2.28338 5.74115 3.01055 4.72316C3.10396 4.55862 5.40647 1.11188 7.87459 3.13407C14.0008 8.17945 6.5 8 11.3894 12.6113C16.2788 17.2226 15.8214 9.99995 20.8659 16.1249C22.8882 18.594 19.4413 20.8964 19.2778 20.9888C18.2598 21.717 15.0995 22.6978 8.20049 15.799Z"  stroke-width="1.5" stroke-linecap="round" stroke-linejoin="round"/>
        </symbol>
        <symbol id="icon-email" fill="none" viewBox="0 0 24 24">
            <g  stroke-linecap="round" stroke-width="1.5"><path stroke-linejoin="round" stroke-miterlimit="10" d="M17 20.5H7c-3 0-5-1.5-5-5v-7c0-3.5 2-5 5-5h10c3 0 5 1.5 5 5v7c0 3.5-2 5-5 5Z"/><path d="m18.77 7.769-5.547 4.286a2 2 0 0 1-2.446 0L5.23 7.77"/></g>
        </symbol>
        <symbol id="icon-arrow" viewBox="0 0 32 32">
            <path fill="#5f9ea0" d="M32 16c0-8.836-7.163-16-16-16S0 7.163 0 16s7.163 16 16 16 16-7.163 16-16z" style="fill:var(--color1, #5f9ea0)"/><path fill="#fff" d="m24.502 9.926-3.019 5.819a.551.551 0 0 0 0 .509l3.019 5.819a.553.553 0 0 1-.694.769L7.783 16.513a.553.553 0 0 1 0-1.028l16.025-6.329a.553.553 0 0 1 .694.769z" style="fill:var(--color2, #fff)"/><path d="M4.304 16c0-8.107 6.029-14.804 13.848-15.855A16.081 16.081 0 0 0 16 0C7.163 0 0 7.163 0 16s7.163 16 16 16c.73 0 1.448-.05 2.152-.145C10.333 30.804 4.304 24.106 4.304 16z" opacity=".1" style="fill:var(--color3, #000)"/>
        </symbol>
        <symbol id="icon-engineer" viewBox="0 0 24 24">
            <path d="M9 15q-0.797 0-1.852 0.164t-2.133 0.492-1.992 0.797-1.477 1.102-0.563 1.43v2.016h16.031v-2.016q0-0.797-0.563-1.43t-1.477-1.102-1.992-0.797-2.133-0.492-1.852-0.164zM22.078 6.844q0.047-0.094 0.047-0.164v-0.164q0-0.188-0.047-0.375l0.75-0.563q0.141-0.094 0.047-0.234l-0.703-1.172q-0.047-0.141-0.234-0.094l-0.844 0.328q-0.234-0.188-0.563-0.328l-0.141-0.938q-0.047-0.141-0.188-0.141h-1.406q-0.141 0-0.188 0.141l-0.094 0.938q-0.328 0.141-0.609 0.328l-0.844-0.328q-0.188-0.047-0.234 0.094l-0.703 1.172q-0.047 0.141 0.047 0.234l0.75 0.563q-0.047 0.188-0.047 0.375 0 0.141 0.047 0.328l-0.75 0.563q-0.141 0.094-0.047 0.234l0.703 1.219q0.047 0.094 0.234 0.094l0.844-0.375q0.234 0.188 0.609 0.328l0.094 0.938q0.047 0.141 0.188 0.141h1.406q0.141 0 0.188-0.141l0.094-0.938q0.328-0.094 0.609-0.328l0.844 0.375q0.188 0.047 0.234-0.094l0.703-1.219q0.047-0.141-0.047-0.234zM19.5 7.734q-0.516 0-0.891-0.352t-0.375-0.867 0.375-0.891 0.891-0.375 0.891 0.375 0.375 0.891-0.375 0.867-0.891 0.352zM19.922 11.672l-0.516-0.844q-0.047-0.141-0.141-0.094l-0.609 0.281q-0.188-0.188-0.422-0.234l-0.094-0.703q-0.047-0.094-0.141-0.094h-0.984q-0.141 0-0.141 0.141l-0.094 0.656q-0.094 0.047-0.211 0.094t-0.211 0.141l-0.609-0.234q-0.094-0.047-0.141 0.047l-0.516 0.844q-0.047 0.094 0.047 0.188l0.516 0.422v0.469l-0.516 0.422q-0.094 0.047-0.047 0.141l0.516 0.891q0.047 0.094 0.141 0.047l0.609-0.281q0.188 0.188 0.422 0.281l0.094 0.656q0 0.094 0.141 0.094h0.984q0.141 0 0.141-0.094l0.047-0.656q0.141-0.047 0.234-0.117t0.188-0.164l0.656 0.281q0.094 0.047 0.141-0.047l0.516-0.891q0.047-0.094-0.047-0.141l-0.516-0.422v-0.469l0.516-0.422q0.094-0.094 0.047-0.188zM17.484 13.313q-0.328 0-0.563-0.234t-0.234-0.563q0-0.375 0.234-0.609t0.563-0.234q0.375 0 0.609 0.234t0.234 0.609q0 0.328-0.234 0.563t-0.609 0.234zM4.734 9h8.531q0.188 0 0.352-0.141t0.164-0.328v-0.047q0-0.188-0.164-0.328t-0.352-0.141h-0.281q0-1.125-0.539-2.039t-1.43-1.43v0.938q0 0.234-0.164 0.375t-0.352 0.141-0.352-0.141-0.164-0.375v-1.359l-0.469-0.094t-0.516-0.047-0.516 0.047l-0.469 0.094v1.359q0 0.234-0.164 0.375t-0.352 0.141-0.352-0.141-0.164-0.375v-0.938q-0.891 0.516-1.43 1.43t-0.539 2.039h-0.281q-0.188 0-0.328 0.141t-0.141 0.328v0.047q0 0.188 0.141 0.328t0.328 0.141zM9 12.984q1.406 0 2.461-0.844t1.383-2.156h-7.688q0.328 1.313 1.383 2.156t2.461 0.844z"></path>
        </symbol>
        <symbol id="icon-logo" viewBox="0 0 82 32">
            <path fill="#f68a1f" d="M16.058 28.144c-0.016 0-0.035 0-0.054 0-6.702 0-12.135-5.433-12.135-12.135s5.433-12.135 12.135-12.135c0.019 0 0.038 0 0.057 0h-0.003c0.286 0 0.568 0.013 0.849 0.033l-3.641 2.597 1.388 1.413-0.826 0.615c-0.566-0.199-1.321-0.365-1.596-0.449-0.45-0.136-0.555 0.175-0.877 0.431-0.355 0.282-1.441 1.261-1.441 1.261-0.361 0.448-0.425 0.611-0.331 1.714l-2.807 2.293c-0.014 0.011-0.023 0.027-0.023 0.046 0 0.032 0.026 0.058 0.058 0.058 0.009 0 0.018-0.002 0.026-0.006l2.841-1.421c0.339 1.554 1.327 5.47 1.38 5.912 0.063 0.524 0.377 2.65 0.795 3.431s1.213 1.259 1.499 1.593c0.245 0.333 0.487 0.625 0.744 0.902l-0.006-0.007c0.252 0.201 1.177 0.072 1.769-0.32s3.833 0.092 5.277-0.421c2.211-0.787 3.75-2.686 5-3.463 0.428-0.153 0.927-0.268 1.444-0.322l0.029-0.002c-1.635 4.907-6.186 8.382-11.548 8.382-0 0-0.001 0-0.001 0h0zM14.426 10.087c0.098 0.093 0.15 0.322 0.11 0.338-0.11 0.119-0.196 0.262-0.249 0.42l-0.002 0.008c-0.060 0.174-0.948 0.241-1.118 0.329s-0.586 0.5-0.759 0.534 0.907 2.343 1.084 2.778 1.368 1.183 1.708 1.462c0.39 0.363 0.722 0.78 0.986 1.241l0.014 0.026-0.767 1.881 0.513 0.301s0.782-1.874 1.090-2.476c0.257-0.501 1.155-1.573 2.010-1.858 0.437-0.13 0.939-0.205 1.459-0.205 0.591 0 1.159 0.097 1.689 0.275l-0.037-0.011c0.523 0.24 0.971 0.551 1.354 0.927l-0.001-0.001 0.32-0.562s-0.347-0.597-1.455-1.104c0.196-0.936 0.643-1.746 1.267-2.381l-0.001 0.001c0.811-0.838 2.332-1.117 3.389-1.211-1.369-2.822-3.709-4.992-6.577-6.108l-0.083-0.028-3.246 1.844 1.472 1.499zM5.203 7.075l-1.452-1.451c-2.090 2.446-3.459 5.565-3.747 8.991l-0.004 0.058h2.055c0.281-2.92 1.424-5.529 3.167-7.62l-0.018 0.022zM26.396 3.748c-2.449-2.088-5.57-3.456-8.998-3.744l-0.058-0.004v2.052c2.921 0.281 5.532 1.423 7.626 3.166l-0.023-0.018zM14.684 2.052v-2.052c-3.486 0.291-6.607 1.659-9.078 3.766l0.022-0.019 1.453 1.452c2.071-1.724 4.682-2.866 7.546-3.143l0.057-0.004zM0 17.327c0.292 3.485 1.661 6.603 3.769 9.071l-0.018-0.022 1.452-1.452c-1.725-2.069-2.867-4.678-3.144-7.541l-0.004-0.057zM5.628 28.252c2.449 2.088 5.569 3.457 8.997 3.744l0.058 0.004v-2.054c-2.921-0.28-5.532-1.422-7.626-3.164l0.023 0.018zM32.023 14.673c-0.292-3.485-1.661-6.603-3.769-9.071l0.018 0.022-1.453 1.451c1.725 2.069 2.867 4.678 3.144 7.541l0.004 0.057zM17.339 29.946v2.054c3.486-0.291 6.607-1.66 9.079-3.767l-0.022 0.019-1.453-1.451c-2.071 1.724-4.683 2.865-7.547 3.141l-0.057 0.004zM26.82 24.925l1.453 1.452c2.089-2.446 3.458-5.565 3.746-8.991l0.004-0.058h-2.055c-0.281 2.919-1.423 5.529-3.166 7.62l0.018-0.022z"></path>
            <path fill="#00425a" d="M46.801 10.847c0.068 0.244 0.107 0.524 0.108 0.813v0.001c0 0.008 0 0.017 0 0.026 0 0.311-0.050 0.611-0.143 0.891l0.006-0.020c-0.095 0.284-0.246 0.526-0.441 0.725l0-0c-0.211 0.209-0.468 0.372-0.753 0.475l-0.014 0.005c-0.31 0.109-0.668 0.172-1.040 0.172-0.026 0-0.051-0-0.077-0.001l0.004 0h-4.459v-1.515h4.503c0.025 0.002 0.055 0.004 0.084 0.004 0.23 0 0.441-0.085 0.603-0.225l-0.001 0.001c0.133-0.142 0.214-0.333 0.214-0.543 0-0.013-0-0.026-0.001-0.039l0 0.002c-0-0.11-0.018-0.216-0.051-0.315l0.002 0.007c-0.032-0.097-0.086-0.18-0.155-0.246l-0-0c-0.087-0.078-0.191-0.138-0.306-0.174l-0.006-0.002c-0.143-0.045-0.308-0.071-0.479-0.071-0.016 0-0.031 0-0.047 0.001l0.002-0h-1.956c-0.032 0.001-0.070 0.002-0.108 0.002-0.41 0-0.804-0.072-1.169-0.203l0.024 0.008c-0.308-0.115-0.57-0.293-0.779-0.52l-0.001-0.001c-0.18-0.203-0.317-0.449-0.392-0.72l-0.003-0.013c-0.068-0.238-0.107-0.51-0.108-0.792v-0c-0-0.007-0-0.016-0-0.025 0-0.305 0.048-0.599 0.137-0.875l-0.006 0.020c0.091-0.28 0.239-0.52 0.431-0.716l-0 0c0.208-0.205 0.461-0.365 0.743-0.464l0.014-0.004c0.305-0.105 0.656-0.166 1.021-0.166 0.023 0 0.045 0 0.068 0.001l-0.003-0h4.089v1.516h-4.132c-0.025-0.003-0.053-0.004-0.082-0.004-0.217 0-0.414 0.081-0.565 0.213l0.001-0.001c-0.123 0.135-0.199 0.316-0.199 0.514 0 0.012 0 0.024 0.001 0.036l-0-0.002c0 0.102 0.016 0.201 0.046 0.294l-0.002-0.007c0.030 0.093 0.081 0.172 0.146 0.236l0 0c0.079 0.075 0.176 0.133 0.283 0.167l0.005 0.001c0.135 0.041 0.289 0.065 0.45 0.065 0.017 0 0.033-0 0.050-0.001l-0.002 0h1.968c0.032-0.001 0.069-0.002 0.106-0.002 0.419 0 0.821 0.073 1.193 0.208l-0.024-0.008c0.314 0.118 0.582 0.298 0.8 0.525l0.001 0.001c0.188 0.204 0.329 0.455 0.404 0.732l0.003 0.012zM55.332 7.3c0.589 0.63 0.887 1.591 0.887 2.858 0 1.26-0.299 2.214-0.887 2.835s-1.45 0.94-2.553 0.94h-1.003c-1.104 0-1.963-0.316-2.553-0.94s-0.888-1.576-0.888-2.835c0-1.266 0.299-2.228 0.887-2.857s1.45-0.952 2.554-0.952h1.003c1.103-0.001 1.963 0.319 2.554 0.95zM54.692 10.146c0-0.81-0.152-1.401-0.452-1.756-0.296-0.349-0.787-0.526-1.46-0.526h-1.003c-0.674 0-1.167 0.177-1.466 0.526-0.303 0.354-0.457 0.949-0.457 1.767 0 0.811 0.152 1.397 0.452 1.744 0.295 0.342 0.79 0.516 1.472 0.516h1.003c0.667 0 1.157-0.175 1.456-0.522 0.303-0.351 0.457-0.94 0.457-1.75zM60.192 12.326c-0.163-0.051-0.304-0.134-0.421-0.241l0.001 0.001c-0.099-0.095-0.173-0.214-0.214-0.348l-0.002-0.006c-0.042-0.136-0.066-0.292-0.066-0.454 0-0.003 0-0.006 0-0.009v0-4.92h-1.517v4.931c-0 0.010-0 0.022-0 0.034 0 0.364 0.056 0.714 0.159 1.044l-0.007-0.025c0.105 0.33 0.278 0.614 0.502 0.847l-0.001-0.001c0.244 0.243 0.54 0.433 0.872 0.551l0.016 0.005c0.359 0.126 0.773 0.199 1.204 0.199 0.029 0 0.059-0 0.088-0.001l-0.004 0h3.293v-1.515h-3.216c-0.016 0-0.035 0.001-0.055 0.001-0.226 0-0.444-0.034-0.649-0.098l0.016 0.004zM70.816 7.241l2.546 6.692h-1.675l-0.52-1.375h-4.080l-0.542 1.375h-1.665l2.646-6.694c0.118-0.336 0.341-0.61 0.629-0.79l0.006-0.004c0.275-0.144 0.6-0.229 0.946-0.229 0.027 0 0.053 0 0.080 0.002l-0.004-0c0.021-0.001 0.046-0.001 0.071-0.001 0.343 0 0.666 0.085 0.95 0.234l-0.011-0.005c0.292 0.182 0.512 0.458 0.62 0.784l0.003 0.010zM70.594 11.042l-1.171-3.1c-0.030-0.103-0.124-0.177-0.235-0.177-0.006 0-0.012 0-0.018 0.001l0.001-0c-0.004-0-0.009-0-0.015-0-0.116 0-0.215 0.075-0.25 0.18l-0.001 0.002-1.221 3.095zM79.777 10.943c0.476-0.159 0.865-0.47 1.119-0.875l0.005-0.009c0.122-0.194 0.22-0.419 0.283-0.658l0.004-0.017c0.057-0.216 0.091-0.464 0.091-0.72v-0c0-0.001 0-0.003 0-0.004 0-0.312-0.052-0.612-0.148-0.891l0.006 0.019c-0.099-0.291-0.254-0.54-0.452-0.746l0.001 0.001c-0.214-0.216-0.473-0.388-0.761-0.501l-0.015-0.005c-0.31-0.12-0.669-0.189-1.044-0.189-0.024 0-0.047 0-0.071 0.001l0.004-0h-4.104v1.516h4.149c0.024-0.002 0.052-0.004 0.081-0.004 0.238 0 0.454 0.096 0.611 0.252l-0-0c0.136 0.156 0.218 0.362 0.218 0.587 0 0.007-0 0.014-0 0.021l0-0.001c-0 0.123-0.020 0.242-0.056 0.354l0.002-0.008c-0.036 0.111-0.090 0.207-0.16 0.29l0.001-0.001c-0.074 0.084-0.166 0.151-0.27 0.196l-0.005 0.002c-0.117 0.049-0.252 0.078-0.394 0.078-0.010 0-0.019-0-0.029-0l0.001 0h-2.867c-0.034-0.003-0.073-0.005-0.112-0.005-0.325 0-0.623 0.118-0.854 0.312l0.002-0.002c-0.194 0.231-0.312 0.531-0.312 0.858 0 0.041 0.002 0.081 0.005 0.121l-0-0.005v3.025h1.515v-2.773c0-0.060 0.010-0.070 0.070-0.070h1.853l1.679 2.844h1.694z"></path>
            <path fill="#00425a" d="M51.29 18.414c0.274 0.309 0.441 0.717 0.441 1.165 0 0.026-0.001 0.052-0.002 0.077l0-0.004v5.998h-1.528v-5.933c0.001-0.007 0.001-0.016 0.001-0.024 0-0.079-0.028-0.152-0.075-0.209l0 0.001c-0.047-0.048-0.113-0.078-0.185-0.078-0.064 0-0.123 0.023-0.168 0.062l0-0c-0.055 0.048-0.098 0.11-0.124 0.179l-0.001 0.003-1.788 4.695c-0.132 0.409-0.352 0.759-0.639 1.040l-0 0c-0.296 0.249-0.682 0.399-1.103 0.399-0.039 0-0.077-0.001-0.115-0.004l0.005 0c-0.037 0.003-0.080 0.005-0.123 0.005-0.461 0-0.878-0.184-1.183-0.483l0 0c-0.27-0.311-0.435-0.721-0.435-1.168 0-0.028 0.001-0.056 0.002-0.084l-0 0.004v-4.337c0.001-0.007 0.001-0.014 0.001-0.022 0-0.080-0.030-0.153-0.079-0.209l0 0c-0.050-0.049-0.118-0.080-0.193-0.080-0.065 0-0.124 0.022-0.171 0.060l0.001-0c-0.054 0.050-0.095 0.111-0.121 0.181l-0.001 0.003-2.231 6h-1.62l2.337-6.278c0.131-0.408 0.349-0.758 0.634-1.040l0-0c0.333-0.248 0.753-0.397 1.208-0.397 0.501 0 0.96 0.181 1.314 0.481l-0.003-0.002c0.274 0.309 0.441 0.717 0.441 1.165 0 0.026-0.001 0.052-0.002 0.077l0-0.004v4.348c-0 0.006-0.001 0.013-0.001 0.020 0 0.077 0.028 0.148 0.074 0.203l-0-0c0.042 0.047 0.103 0.077 0.171 0.077 0.004 0 0.008-0 0.011-0l-0.001 0c0.005 0 0.011 0 0.017 0 0.14 0 0.257-0.097 0.288-0.227l0-0.002 1.789-4.698c0.131-0.408 0.349-0.757 0.634-1.040l0-0c0.333-0.248 0.753-0.397 1.208-0.397 0.501 0 0.96 0.181 1.314 0.481l-0.003-0.002zM59.016 18.959l2.546 6.692h-1.675l-0.464-1.228h-4.193l-0.483 1.228h-1.665l2.647-6.694c0.117-0.336 0.339-0.61 0.627-0.79l0.006-0.004c0.275-0.144 0.6-0.229 0.946-0.229 0.027 0 0.053 0 0.080 0.002l-0.004-0c0.021-0.001 0.046-0.001 0.071-0.001 0.343 0 0.667 0.085 0.951 0.234l-0.011-0.005c0.292 0.183 0.512 0.458 0.62 0.785l0.003 0.010zM58.85 22.908l-1.227-3.247c-0.030-0.103-0.124-0.177-0.235-0.177-0.006 0-0.012 0-0.018 0.001l0.001-0c-0.004-0-0.009-0-0.014-0-0.116 0-0.215 0.075-0.25 0.18l-0.001 0.002-1.278 3.242zM69.435 18.067v5.933c0 0.005 0 0.010 0 0.016 0 0.078-0.031 0.15-0.081 0.202l0-0c-0.057 0.051-0.132 0.082-0.215 0.082-0.009 0-0.018-0-0.027-0.001l0.001 0c-0.007 0-0.015 0.001-0.022 0.001-0.075 0-0.144-0.024-0.201-0.064l0.001 0.001c-0.059-0.047-0.107-0.106-0.14-0.173l-0.001-0.003-2.144-4.687c-0.14-0.41-0.365-0.76-0.657-1.042l-0.001-0.001c-0.304-0.249-0.696-0.399-1.123-0.399-0.041 0-0.081 0.001-0.122 0.004l0.005-0c-0.605 0-1.062 0.161-1.36 0.478-0.278 0.308-0.447 0.717-0.447 1.166 0 0.026 0.001 0.051 0.002 0.076l-0-0.004v5.998h1.516v-5.933c-0-0.006-0.001-0.014-0.001-0.021 0-0.080 0.031-0.153 0.082-0.208l-0 0c0.059-0.051 0.136-0.082 0.221-0.082 0.011 0 0.021 0 0.031 0.001l-0.001-0c0.003-0 0.005-0 0.008-0 0.16 0 0.295 0.103 0.344 0.246l0.001 0.003 2.144 4.686c0.077 0.226 0.169 0.42 0.28 0.602l-0.007-0.013c0.108 0.177 0.237 0.328 0.386 0.456l0.003 0.002c0.152 0.127 0.333 0.228 0.53 0.29l0.011 0.003c0.2 0.062 0.429 0.098 0.667 0.098 0.013 0 0.027-0 0.040-0l-0.002 0c0.039 0.003 0.085 0.005 0.131 0.005 0.473 0 0.903-0.183 1.223-0.483l-0.001 0.001c0.281-0.309 0.453-0.721 0.453-1.174 0-0.027-0.001-0.054-0.002-0.080l0 0.004v-5.986z"></path>
        </symbol>
        <symbol id="icon-facebook" viewBox="0 0 24 24">
            <path d="M12 0C5.372 0 0 5.372 0 12s5.372 12 12 12 12-5.372 12-12S18.628 0 12 0zm2.648 9.966-.136 1.795H12.67v6.234h-2.325v-6.234H9.103V9.966h1.242V8.761c0-.53.014-1.35.398-1.861.408-.539.966-.905 1.927-.905 1.566 0 2.222.225 2.222.225l-.309 1.837s-.516-.15-.998-.15-.914.173-.914.656v1.402h1.978z"/>
        </symbol>
        <symbol id="icon-instagram" viewBox="0 0 24 24">
            <path d="M12.812.025c6.089 0 11.071 4.982 11.071 11.071v1.73c0 6.089-4.982 11.071-11.071 11.071h-1.73C4.993 23.897.011 18.915.011 12.826v-1.73C.011 5.007 4.993.025 11.082.025zm-.647 6h-.154c-1.283 0-2.565.042-2.565.042a3.392 3.392 0 0 0-3.392 3.392s-.039 1.101-.042 2.284v.155c0 1.324.042 2.693.042 2.693a3.392 3.392 0 0 0 3.392 3.392s1.199.042 2.438.042c1.324 0 2.735-.042 2.735-.042a3.32 3.32 0 0 0 3.35-3.35s.042-1.354.042-2.65l-.001-.304c-.006-1.163-.042-2.261-.042-2.261a3.32 3.32 0 0 0-3.35-3.35s-1.221-.039-2.454-.042zm-.154 1.08c1.052 0 2.4.035 2.4.035 1.536 0 2.485.949 2.485 2.485 0 0 .035 1.326.035 2.366 0 1.063-.035 2.435-.035 2.435 0 1.536-.949 2.485-2.485 2.485 0 0-1.193.029-2.227.034l-.277.001c-1.016 0-2.254-.035-2.254-.035-1.536 0-2.527-.991-2.527-2.527 0 0-.035-1.377-.035-2.462 0-1.016.035-2.296.035-2.296 0-1.536.991-2.485 2.527-2.485 0 0 1.306-.035 2.358-.035zm0 1.846a3.074 3.074 0 1 0 0 6.149 3.074 3.074 0 0 0 0-6.149zm0 1.074a2 2 0 1 1 .001 3.999 2 2 0 0 1-.001-3.999zm3.221-1.927c-.41 0-.743.334-.743.746s.333.746.743.746.743-.334.743-.746-.332-.746-.743-.746z"/>
        </symbol>
        <symbol id="icon-telegram" viewBox="0 0 24 24">
            <path d="M12 0C5.373 0 0 5.373 0 12s5.373 12 12 12 12-5.373 12-12S18.627 0 12 0zm5.894 8.221-1.97 9.28c-.145.658-.537.818-1.084.508l-3-2.21-1.446 1.394a.759.759 0 0 1-.6.295h-.005l.213-3.054 5.56-5.022c.24-.213-.054-.334-.373-.121L8.32 13.617l-2.96-.924c-.64-.203-.658-.64.135-.954l11.566-4.458c.538-.196 1.006.128.832.941z"/>
        </symbol>
        <symbol id="icon-youtube" viewBox="0 0 24 24">
            <path d="m10.402 14.311 3.928-2.306-3.928-2.306z"/><path d="M12 0C5.372 0 0 5.372 0 12s5.372 12 12 12 12-5.372 12-12S18.628 0 12 0zm6 14.147c0 2.067-2.067 2.067-2.067 2.067H8.067C6 16.214 6 14.147 6 14.147V9.858c0-2.067 2.067-2.067 2.067-2.067h7.866C18 7.791 18 9.858 18 9.858v4.289z"/>
        </symbol>
    </defs>
</svg>